<svg width="16" height="16" viewBox="0 0 16 16" fill="none" xmlns="http://www.w3.org/2000/svg">
<path d="M11.3332 5.44084L8.00002 3.77425L4.6665 5.44101L7.99967 7.1076L11.3332 5.44084Z" fill="#222222"/>
<path d="M11.8334 6.30879L8.49967 7.97563V11.9758L11.8334 10.309V6.30879Z" fill="#222222"/>
<path d="M7.49967 11.9754V7.97563L4.16669 6.30914V10.309L7.49967 11.9754Z" fill="#222222"/>
<path fill-rule="evenodd" clip-rule="evenodd" d="M1 1H6V2.33333H2.33333V6H1V1ZM13.6667 2.33333H10V1H15V6H13.6667V2.33333ZM2.33333 13.6667V10H1V15H6V13.6667H2.33333ZM13.6667 13.6667V10H15V15H10V13.6667H13.6667Z" fill="#222222"/>
</svg>
