<svg width="16" height="16" viewBox="0 0 16 16" fill="none" xmlns="http://www.w3.org/2000/svg">
<path d="M13.333 0.832993C13.609 0.832993 13.8328 1.057 13.833 1.33299V10.667C13.8328 10.943 13.609 11.167 13.333 11.167H2.66699C2.39096 11.167 2.16717 10.943 2.16699 10.667V1.33299C2.16708 1.2005 2.21979 1.07317 2.31348 0.979477C2.40721 0.885913 2.53454 0.832993 2.66699 0.832993H13.333ZM7.81348 2.83397C7.55467 2.82764 7.28751 2.84944 7.06152 2.88182L7.20312 3.87206C7.38714 3.84568 7.59762 3.82928 7.78906 3.83397C7.88766 3.83638 7.969 3.84408 8.0332 3.85448C7.98814 3.91518 7.92369 3.99102 7.83301 4.08202C7.104 4.81342 6.18506 6.00534 5.75781 6.91014C5.65003 7.13843 5.5606 7.37458 5.52148 7.59569C5.48548 7.79949 5.47265 8.10023 5.65918 8.35252C5.86632 8.63265 6.18904 8.68717 6.44727 8.66991C6.70524 8.65261 7.00229 8.56183 7.33008 8.42088C7.91689 8.16857 8.4027 8.02881 8.7793 7.97069C9.15698 7.91239 9.38196 7.94266 9.48633 7.98143C9.46223 8.04086 9.3982 8.15302 9.23828 8.31346L9.94727 9.01952C10.2424 8.72334 10.4769 8.37019 10.498 7.98924C10.5093 7.78497 10.4575 7.58144 10.332 7.40721C10.2104 7.23841 10.0421 7.12686 9.86719 7.05663C9.52825 6.92062 9.09531 6.91014 8.62695 6.98241C8.14685 7.05651 7.57783 7.22535 6.93457 7.50194C6.76576 7.57451 6.63539 7.61834 6.53809 7.64354C6.56432 7.5601 6.60515 7.45754 6.66211 7.3369C7.02582 6.56675 7.86437 5.46694 8.54102 4.78807C8.83463 4.49348 9.07022 4.17436 9.1084 3.83299C9.12997 3.63914 9.08605 3.44778 8.97266 3.28612C8.86661 3.1351 8.72309 3.04223 8.59668 2.98436C8.35274 2.87276 8.05964 2.83999 7.81348 2.83397Z" fill="#222222"/>
<path d="M11.7453 11.5352H14.6666V10.2019H1.33331V11.5352H4.25468L2.7371 14.5704L3.92967 15.1667L5.74539 11.5352H7.33331V14.2019H8.66665V11.5352H10.2546L12.0703 15.1667L13.2629 14.5704L11.7453 11.5352Z" fill="#222222"/>
</svg>
