<svg width="16" height="16" viewBox="0 0 16 16" fill="none" xmlns="http://www.w3.org/2000/svg">
<g clip-path="url(#clip0_63_1674)">
<path fill-rule="evenodd" clip-rule="evenodd" d="M10.7366 4.79383C9.89285 5.7157 9.26604 6.9586 8.59626 8.29814L8.57359 8.3435C7.93011 9.63057 7.22851 11.0339 6.24697 12.1064C5.22295 13.2252 3.88227 14 1.99998 14C1.63179 14 1.33331 13.7015 1.33331 13.3333C1.33331 12.9651 1.63179 12.6667 1.99998 12.6667C3.45102 12.6667 4.45061 12.0942 5.26339 11.2062C6.10711 10.2843 6.73392 9.0414 7.40369 7.70186L7.42637 7.65651C8.06985 6.36943 8.77144 4.9661 9.75299 3.89364C10.777 2.77477 12.1177 2 14 2C14.3682 2 14.6666 2.29848 14.6666 2.66667C14.6666 3.03486 14.3682 3.33333 14 3.33333C12.5489 3.33333 11.5494 3.90576 10.7366 4.79383Z" fill="#222222"/>
<path d="M10.7805 12.6667C11.055 11.8899 11.7959 11.3333 12.6667 11.3333C13.7712 11.3333 14.6667 12.2288 14.6667 13.3333C14.6667 14.4379 13.7712 15.3333 12.6667 15.3333C11.7959 15.3333 11.055 14.7768 10.7805 14L10 14C9.63181 14 9.33333 13.7015 9.33333 13.3333C9.33333 12.9651 9.63181 12.6667 10 12.6667H10.7805Z" fill="#222222"/>
<path d="M6 13.3333C6 12.9651 6.29848 12.6667 6.66667 12.6667H8C8.36819 12.6667 8.66667 12.9651 8.66667 13.3333C8.66667 13.7015 8.36819 14 8 14H6.66667C6.29848 14 6 13.7015 6 13.3333Z" fill="#222222"/>
<path d="M1.33331 2.66667C1.33331 1.5621 2.22874 0.666672 3.33331 0.666672C4.20413 0.666672 4.94495 1.22321 5.21951 2.00001L5.99998 2.00001C6.36817 2.00001 6.66665 2.29848 6.66665 2.66667C6.66665 3.03486 6.36817 3.33334 5.99998 3.33334L5.21951 3.33334C4.94495 4.11013 4.20413 4.66667 3.33331 4.66667C2.22874 4.66667 1.33331 3.77124 1.33331 2.66667Z" fill="#222222"/>
<path d="M7.33331 2.66667C7.33331 2.29848 7.63179 2.00001 7.99998 2.00001H9.33331C9.7015 2.00001 9.99998 2.29848 9.99998 2.66667C9.99998 3.03486 9.7015 3.33334 9.33331 3.33334H7.99998C7.63179 3.33334 7.33331 3.03486 7.33331 2.66667Z" fill="#222222"/>
</g>
<defs>
<clipPath id="clip0_63_1674">
<rect width="16" height="16" fill="white"/>
</clipPath>
</defs>
</svg>
