<svg width="16" height="16" viewBox="0 0 16 16" fill="none" xmlns="http://www.w3.org/2000/svg">
<path fill-rule="evenodd" clip-rule="evenodd" d="M7.99998 15.1667C4.04194 15.1667 0.833313 11.958 0.833313 7.99999C0.833313 4.04195 4.04194 0.833328 7.99998 0.833328C11.958 0.833328 15.1666 4.04195 15.1666 7.99999C15.1666 11.958 11.958 15.1667 7.99998 15.1667ZM7.99998 13.8636C7.4515 13.8636 6.92061 13.7883 6.41708 13.6475C6.58847 13.0722 6.46279 12.4837 6.28976 11.9878C6.11177 11.4776 6.04382 11.2774 6.00888 11.0437C5.9724 10.7998 5.97105 10.5138 5.97105 9.83445C5.97105 9.17424 5.89802 8.53257 5.39787 8.12301C5.15757 7.92624 4.86164 7.82005 4.53948 7.7597C4.21806 7.69949 3.83537 7.67871 3.39129 7.67871C2.94637 7.67871 2.53431 7.53686 2.17456 7.32689C2.4376 5.02529 4.03323 3.12854 6.17074 2.42732C6.17557 2.50714 6.18469 2.58638 6.19826 2.66462C6.28986 3.19278 6.59054 3.69039 7.14177 3.95795C7.35193 4.05996 7.4364 4.16295 7.48289 4.24896C7.5387 4.3522 7.56618 4.47723 7.59707 4.68482C7.60039 4.70711 7.60369 4.73023 7.6071 4.75411C7.66385 5.1514 7.75052 5.7581 8.42128 6.1922C8.87426 6.48537 9.44118 6.59055 10.042 6.41377C10.6314 6.24033 11.2125 5.80889 11.7543 5.10757C12.0091 4.77768 12.3331 4.57052 12.6653 4.44741C13.4171 5.43324 13.8636 6.66448 13.8636 7.99999C13.8636 8.05974 13.8627 8.11928 13.8609 8.17859C13.3672 8.12734 12.8285 8.23512 12.2914 8.6211C11.6908 9.05278 11.2014 9.08987 10.7517 9.1104L10.6901 9.11306C10.4858 9.12166 10.2255 9.13262 9.99378 9.20571C9.69166 9.30101 9.43953 9.49481 9.26561 9.82813C9.02192 10.2951 9.06203 10.7071 9.19392 11.0672C9.2522 11.2264 9.32983 11.3797 9.39541 11.5093L9.3997 11.5178C9.4703 11.6573 9.53224 11.7801 9.58396 11.9113C9.68139 12.1586 9.74022 12.4308 9.67821 12.7942C9.63661 13.038 9.5379 13.338 9.34018 13.7098C8.90975 13.8104 8.46108 13.8636 7.99998 13.8636Z" fill="#222222"/>
</svg>
