<svg width="16" height="16" viewBox="0 0 16 16" fill="none" xmlns="http://www.w3.org/2000/svg">
<path d="M14.3537 13.6462L11.2243 10.5175C12.1313 9.42856 12.5836 8.03187 12.487 6.61796C12.3905 5.20405 11.7526 3.88178 10.706 2.92623C9.65938 1.97068 8.28468 1.45541 6.86784 1.48761C5.451 1.51981 4.10113 2.097 3.09901 3.09911C2.0969 4.10122 1.51971 5.4511 1.48751 6.86794C1.45531 8.28478 1.97058 9.65948 2.92613 10.7061C3.88168 11.7527 5.20395 12.3906 6.61786 12.4871C8.03177 12.5837 9.42847 12.1314 10.5174 11.2244L13.6462 14.3537C13.6926 14.4002 13.7478 14.4371 13.8085 14.4622C13.8691 14.4873 13.9342 14.5003 13.9999 14.5003C14.0656 14.5003 14.1307 14.4873 14.1913 14.4622C14.252 14.4371 14.3072 14.4002 14.3537 14.3537C14.4001 14.3073 14.437 14.2521 14.4621 14.1914C14.4872 14.1308 14.5002 14.0657 14.5002 14C14.5002 13.9343 14.4872 13.8692 14.4621 13.8086C14.437 13.7479 14.4001 13.6927 14.3537 13.6462ZM2.4999 7C2.4999 6.10998 2.76382 5.23995 3.25829 4.49993C3.75275 3.75991 4.45556 3.18313 5.27782 2.84254C6.10009 2.50195 7.00489 2.41283 7.87781 2.58646C8.75072 2.7601 9.55254 3.18868 10.1819 3.81802C10.8112 4.44735 11.2398 5.24918 11.4134 6.12209C11.5871 6.99501 11.498 7.89981 11.1574 8.72207C10.8168 9.54434 10.24 10.2471 9.49997 10.7416C8.75994 11.2361 7.88992 11.5 6.9999 11.5C5.80683 11.4987 4.66301 11.0241 3.81938 10.1805C2.97575 9.33689 2.50122 8.19307 2.4999 7Z" fill="#4B5563"/>
</svg>
