<svg width="16" height="16" viewBox="0 0 16 16" fill="none" xmlns="http://www.w3.org/2000/svg">
<path d="M7.4163 1.57461C7.57147 1.48351 7.76523 1.47523 7.92838 1.55273L13.5424 4.21939C13.7207 4.30409 13.8334 4.47722 13.8334 4.66661V8.66661C13.8334 8.8399 13.7389 9.00083 13.5837 9.09193C13.4286 9.18303 13.2348 9.19132 13.0717 9.11382L8.50002 6.94229V11.3333C8.50002 11.3332 8.50002 11.3333 8.50002 11.3333C8.49995 13.0821 7.08221 14.4999 5.33335 14.4999C3.58445 14.4999 2.16669 13.0822 2.16669 11.3333C2.16669 9.58437 3.58445 8.16661 5.33335 8.16661C6.0166 8.16661 6.64931 8.38299 7.16669 8.75097V1.99994C7.16669 1.82665 7.26114 1.66572 7.4163 1.57461Z" fill="#222222"/>
</svg>
