<svg width="16" height="16" viewBox="0 0 16 16" fill="none" xmlns="http://www.w3.org/2000/svg">
<path d="M7.28261 4.05474C7.35455 4.0614 7.4147 4.1214 7.53358 4.24029L11.7592 8.46685C11.8781 8.58583 11.938 8.6459 11.9447 8.71783C11.9513 8.78989 11.8999 8.86483 11.7973 9.01373C11.394 9.59864 11.2329 10.1686 11.1742 10.7676L11.1713 10.793C11.1263 11.2519 11.0889 11.6327 11.0307 11.9297C10.9713 12.232 10.8768 12.5289 10.6625 12.7628C10.4575 12.9862 10.2027 13.1055 9.93007 13.1885C9.67353 13.2666 9.35087 13.3268 8.97499 13.3965L3.93593 14.3321C3.49046 14.4149 3.10159 14.4868 2.7914 14.4981C2.68223 14.5021 2.56997 14.4983 2.45839 14.4825L6.41737 10.5235C6.66996 10.6615 6.94379 10.7522 7.22499 10.7979C7.58837 10.8569 7.93154 10.6105 7.99062 10.2471C8.04942 9.88381 7.80219 9.54146 7.43886 9.48248C7.19065 9.44212 6.98165 9.33759 6.82167 9.17779C6.66173 9.01774 6.55733 8.80802 6.51698 8.55963C6.45781 8.1964 6.11467 7.94889 5.75136 8.00787C5.38827 8.06704 5.14182 8.41033 5.20058 8.77349C5.24626 9.05472 5.33699 9.32849 5.47499 9.58111L1.51601 13.5381C1.50058 13.4276 1.49742 13.3162 1.50136 13.2081C1.5127 12.8979 1.58464 12.5089 1.66737 12.0635L2.60292 7.02447C2.67269 6.64864 2.73282 6.32591 2.81093 6.06939C2.89401 5.79666 3.01407 5.54194 3.23769 5.33697C3.47155 5.12267 3.76746 5.02716 4.06972 4.96783C4.36676 4.90954 4.7475 4.87306 5.20644 4.82818L5.23183 4.82525C5.83107 4.76664 6.4015 4.60564 6.98671 4.20221C7.13553 4.09961 7.2106 4.04828 7.28261 4.05474ZM10.0111 1.5108C10.5152 1.45078 10.9403 1.64465 11.3412 1.94146C11.722 2.22345 12.1487 2.65026 12.6635 3.1651L12.8353 3.33697C13.35 3.8516 13.7761 4.27759 14.058 4.65826C14.3549 5.05926 14.5487 5.48417 14.4887 5.98834C14.4092 6.65486 13.9669 7.15929 13.5414 7.52349C13.388 7.65479 13.2222 7.77982 13.058 7.89557C12.9319 7.98446 12.868 8.02877 12.7953 8.02252C12.7228 8.0161 12.6667 7.9603 12.5551 7.84869L8.15077 3.44439C8.03922 3.33283 7.98334 3.27667 7.97694 3.20416C7.9707 3.13146 8.01501 3.06756 8.1039 2.94146C8.21963 2.7773 8.34469 2.61145 8.47597 2.45807C8.84013 2.03262 9.34472 1.59031 10.0111 1.5108Z" fill="#222222"/>
</svg>
