<svg width="16" height="16" viewBox="0 0 16 16" fill="none" xmlns="http://www.w3.org/2000/svg">
<path fill-rule="evenodd" clip-rule="evenodd" d="M0.833313 2.66666C0.833313 2.39051 1.05717 2.16666 1.33331 2.16666H11.3333C11.6095 2.16666 11.8333 2.39051 11.8333 2.66666V5.43023L14.2367 3.92468C14.4264 3.80586 14.6626 3.80274 14.8551 3.91652C15.0477 4.03031 15.1666 4.2434 15.1666 4.47434V11.5256C15.1666 11.7566 15.0477 11.9697 14.8552 12.0835C14.6627 12.1972 14.4264 12.1941 14.2367 12.0753L11.8333 10.5698V13.3333C11.8333 13.6095 11.6095 13.8333 11.3333 13.8333H1.33331C1.05717 13.8333 0.833313 13.6095 0.833313 13.3333V2.66666ZM11.8333 9.07475V6.92534L13.9386 5.60653V10.3935L11.8333 9.07475ZM6.66665 5.99999L9.33331 5.99999V4.66666H6.66665V5.99999Z" fill="#222222"/>
</svg>
