<svg width="16" height="16" viewBox="0 0 16 16" fill="none" xmlns="http://www.w3.org/2000/svg">
<path fill-rule="evenodd" clip-rule="evenodd" d="M5.33331 8.16667C5.05717 8.16667 4.83331 8.39053 4.83331 8.66667V14.6667C4.83331 14.9428 5.05717 15.1667 5.33331 15.1667L14.6666 15.1667C14.7993 15.1667 14.9264 15.114 15.0202 15.0202C15.114 14.9265 15.1666 14.7993 15.1666 14.6667V8.66667C15.1666 8.39053 14.9428 8.16667 14.6666 8.16667H5.33331ZM9.35361 10.6869L8.6465 9.97982L6.95961 11.6667L8.6465 13.3536L9.35361 12.6465L8.37383 11.6667L9.35361 10.6869ZM10.6465 10.6869L11.6263 11.6667L10.6465 12.6465L11.3536 13.3536L13.0405 11.6667L11.3536 9.97982L10.6465 10.6869Z" fill="#222222"/>
<path d="M1.48331 0.833332C1.12433 0.833332 0.833313 1.12352 0.833313 1.48148V11.8519C0.833313 12.2098 1.12433 12.5 1.48331 12.5L3.43331 12.5L3.43331 11.2037L2.13331 11.2037V4.5H12.5333V6.66667H13.8333V1.48148C13.8333 1.12352 13.5423 0.833332 13.1833 0.833332H1.48331Z" fill="#222222"/>
</svg>
